<svg fill="none" height="400" viewBox="0 0 1040 400" width="1040" xmlns="http://www.w3.org/2000/svg" xmlns:xlink="http://www.w3.org/1999/xlink"><clipPath id="a"><path d="m0 0h1040v400h-1040z"/></clipPath><mask id="b" height="271" maskUnits="userSpaceOnUse" width="361" x="525" y="97"><path clip-rule="evenodd" d="m525.195 367.241h345.82c7.732 0 14-6.268 14-14v-241.51c0-7.732-6.268-13.9996-14-13.9996h-60.047z" fill="#02346e" fill-rule="evenodd"/></mask><mask id="c" height="270" maskUnits="userSpaceOnUse" width="371" x="398" y="49"><path clip-rule="evenodd" d="m768.358 49.8007h-356.351c-7.732 0-14 6.268-14 14v240.4623c0 7.732 6.268 14 14 14h71.689z" fill="#f1faff" fill-rule="evenodd"/></mask><mask id="d" height="70" maskUnits="userSpaceOnUse" width="71" x="247" y="177"><rect fill="#02346e" height="69.0902" rx="11" width="69.0902" x="247.938" y="177.647"/></mask><mask id="e" height="64" maskUnits="userSpaceOnUse" width="63" x="561" y="67"><rect fill="#02346e" height="62.2048" rx="11" width="62.2048" x="561.005" y="67.8471"/></mask><mask id="f" height="135" maskUnits="userSpaceOnUse" width="69" x="885" y="188"><path d="m885.107 188.619h68.6431v133.796h-68.6431z" fill="#c4c4c4"/></mask><mask id="g" height="60" maskUnits="userSpaceOnUse" width="36" x="398" y="191"><path d="m398.032 191.352h35.0131v59.0845h-35.0131z" fill="#c4c4c4"/></mask><g clip-path="url(#a)"><path d="m0 0h1040v400h-1040z" fill="#66cbff"/><path d="m525.195 367.241h307.142v10.9378h-307.142z" fill="#0572ec"/><path d="m173.029 99.1965h660.805v490.2665h-660.805z" stroke="#02346e" stroke-linecap="round" stroke-linejoin="round" stroke-width="3"/><path d="m173.029 154.276h706.485" stroke="#02346e" stroke-linecap="round" stroke-linejoin="round" stroke-width="3"/><path d="m188.655 126.736 13.093-10.334v20.669z" fill="#02346e"/><path d="m229.154 126.736-13.094-10.334v20.669z" fill="#02346e"/><rect fill="#02346e" height="33.7719" rx="16.886" width="327.102" x="264.468" y="109.85"/><path d="m173.029 80.4291c0-11.0456 8.955-19.9999 20-19.9999h226.813c11.045 0 20 8.9543 20 20v18.7672h-266.813z" fill="#66cbff" stroke="#02346e" stroke-linecap="round" stroke-linejoin="round" stroke-width="3"/><circle cx="194.46" cy="79.8128" fill="#02346e" r="5.80504"/><circle cx="211.917" cy="79.8128" fill="#0572ec" r="5.80504"/><circle cx="229.375" cy="79.8128" fill="#f1faff" r="5.80504"/><rect height="44.9161" rx="22.458" stroke="#f1faff" stroke-linecap="round" stroke-linejoin="round" stroke-width="3" width="245.85" x="247.908" y="270.141"/><path d="m387.466 302.269 1.372-240.3375h31.127l-4.727 254.4175h-13.772c-7.763 0-14.044-6.317-14-14.08z" fill="#0572ec"/><circle cx="282.483" cy="124.791" r="5.26116" stroke="#f1faff" stroke-linecap="round" stroke-linejoin="round" stroke-width="3"/><path d="m286.059 130.052 3.761 4.592" stroke="#f1faff" stroke-linecap="round" stroke-linejoin="round" stroke-width="3"/><path clip-rule="evenodd" d="m525.195 367.241h345.82c7.732 0 14-6.268 14-14v-241.51c0-7.732-6.268-13.9996-14-13.9996h-60.047z" fill="#02346e" fill-rule="evenodd"/><g mask="url(#b)"><path d="m579.525 304.473v229.178" stroke="#f1faff" stroke-linecap="round" stroke-linejoin="round" stroke-width="3"/><path d="m579.525 304.473v229.178" stroke="#f1faff" stroke-linecap="round" stroke-linejoin="round" stroke-width="3"/><path d="m828.775 154.276h-229.178" stroke="#f1faff" stroke-linecap="round" stroke-linejoin="round" stroke-width="3"/><path d="m758.155 275.524h-161.119" stroke="#f1faff" stroke-linecap="round" stroke-linejoin="round" stroke-width="3"/><g fill="#f1faff"><circle cx="611.803" cy="234.051" r="6.11937"/><circle cx="631.682" cy="234.051" r="6.11937"/><circle cx="651.561" cy="234.051" r="6.11937"/><circle cx="671.44" cy="234.051" r="6.11937"/><circle cx="691.319" cy="234.051" r="6.11937"/><circle cx="711.198" cy="234.051" r="6.11937"/><circle cx="731.076" cy="234.051" r="6.11937"/><circle cx="750.955" cy="234.051" r="6.11937"/></g></g><path clip-rule="evenodd" d="m768.358 49.8007h-356.351c-7.732 0-14 6.268-14 14v240.4623c0 7.732 6.268 14 14 14h71.689z" fill="#f1faff" fill-rule="evenodd"/><g mask="url(#c)"><path d="m538.691 12.8167v282.9883" stroke="#02346e" stroke-linecap="round" stroke-linejoin="round" stroke-width="3"/><path d="m649.444 99.3858 106.636-.0001" stroke="#02346e" stroke-linecap="round" stroke-linejoin="round" stroke-width="3"/><path d="m419.857 87.6297h84.333" stroke="#66cbff" stroke-linecap="round" stroke-linejoin="round" stroke-width="3"/><path d="m419.857 114.988h84.333" stroke="#66cbff" stroke-linecap="round" stroke-linejoin="round" stroke-width="3"/><path d="m419.857 142.346h84.333" stroke="#66cbff" stroke-linecap="round" stroke-linejoin="round" stroke-width="3"/><path d="m564.076 225.344h106.635" stroke="#02346e" stroke-linecap="round" stroke-linejoin="round" stroke-width="3"/><g fill="#02346e"><circle cx="570.171" cy="184.032" r="6.09558"/><circle cx="589.973" cy="184.032" r="6.09558"/><circle cx="609.775" cy="184.032" r="6.09558"/><circle cx="629.576" cy="184.032" r="6.09558"/><circle cx="649.378" cy="184.032" r="6.09558"/><circle cx="669.18" cy="184.032" r="6.09558"/><circle cx="688.981" cy="184.032" r="6.09558"/><circle cx="708.783" cy="184.032" r="6.09558"/></g></g><path d="m589.979 17.6387v21.3734" stroke="#02346e" stroke-linecap="round" stroke-linejoin="round" stroke-width="3"/><path d="m559.39 27.5063 11.506 11.5058" stroke="#02346e" stroke-linecap="round" stroke-linejoin="round" stroke-width="3"/><path d="m623.21 27.5063-11.506 11.5058" stroke="#02346e" stroke-linecap="round" stroke-linejoin="round" stroke-width="3"/><rect fill="#02346e" height="69.0902" rx="11" width="69.0902" x="247.938" y="177.647"/><g mask="url(#d)"><circle cx="277.222" cy="219.171" fill="#f1faff" r="17.7885"/><path d="m275.411 219.279c-25.887-34.124-50.304-11.539-51.51-1.894l12.954 35.555 89.967 4.521-1.241-51.767c-8.768 31.107-33.734 35.251-50.17 13.585z" fill="#0572ec"/></g><rect fill="#02346e" height="62.2048" rx="11" width="62.2048" x="561.005" y="67.8471"/><g mask="url(#e)"><circle cx="587.37" cy="105.233" fill="#f1faff" r="16.0157"/><path d="m585.74 105.33c-23.307-30.7228-45.291-10.3886-46.376-1.705l11.662 32.012 81.002 4.071-1.117-46.6091c-7.895 28.0071-30.372 31.7381-45.171 12.2311z" fill="#0572ec"/></g><path d="m263.861 305.009c0-5.185 4.203-9.388 9.388-9.388h3.974c5.185 0 9.388 4.203 9.388 9.388z" fill="#f1faff"/><circle cx="275.236" cy="286.718" fill="#f1faff" r="6.52801"/><rect fill="#0572ec" height="25.7824" rx="12.8912" width="87.4902" x="605.182" y="315.782"/><g stroke-linecap="round"><path d="m850.696 208.89s30.777-22.356 69.517-1.378" stroke="#0572ec" stroke-miterlimit="10" stroke-width="2.5"/><path d="m835.996 239.82s14.394-24.193 49.305-25.111c34.912-.766 49.918 25.111 49.918 25.111" stroke="#0572ec" stroke-miterlimit="10" stroke-width="2.5"/><path d="m902.604 312.706c-7.962-1.378-19.752-11.025-25.112-18.069-5.359-7.043-11.331-17.915-5.359-29.552 5.819-11.484 24.653-12.403 28.174 5.666 3.522 18.068 13.934 18.221 19.753 16.537 4.9-1.378 16.384-5.206 6.737-31.084-8.881-24.193-28.48-27.255-41.189-26.949-11.025.306-32.462 4.134-40.73 27.408-2.165 6.135-3.055 12.092-3.233 17.445" stroke="#0572ec" stroke-miterlimit="10" stroke-width="2.5"/><path d="m884.995 270.904s1.378 15.771 12.862 24.193c8.353 7.441 22.312 7.441 22.312 7.441" stroke="#0572ec" stroke-miterlimit="10" stroke-width="2.5"/><path d="m871.827 310.409s-15.925-12.096-15.925-34.452c0-18.987 11.025-31.39 29.093-33.074 18.068-1.685 26.796 12.862 30.777 30.777" stroke="#0572ec" stroke-miterlimit="10" stroke-width="2.5"/><g mask="url(#f)" stroke="#f1faff" stroke-miterlimit="10" stroke-width="2.5"><path d="m850.702 208.904s30.777-22.355 69.517-1.378"/><path d="m836.002 239.835s14.394-24.193 49.305-25.112c34.912-.766 49.918 25.112 49.918 25.112"/><path d="m902.61 312.72c-7.962-1.378-19.753-11.024-25.112-18.068s-11.331-17.915-5.359-29.552c5.819-11.484 24.652-12.403 28.174 5.665s13.934 18.222 19.753 16.537c4.9-1.378 16.384-5.206 6.737-31.083-8.881-24.194-28.48-27.256-41.189-26.95-11.025.307-32.462 4.135-40.731 27.409-2.165 6.134-3.054 12.092-3.232 17.444"/><path d="m885.001 270.918s1.378 15.772 12.862 24.193c8.353 7.442 22.312 7.442 22.312 7.442"/><path d="m871.833 310.424s-15.925-12.097-15.925-34.453c0-18.987 11.025-31.389 29.093-33.074 18.068-1.684 26.796 12.863 30.777 30.778"/></g></g><path clip-rule="evenodd" d="m247.923 362.42c.008-13.232 10.741-23.952 23.973-23.944l200.934.126c13.232.008 23.951 10.741 23.943 23.973s-10.741 23.951-23.973 23.943l-200.934-.125c-13.232-.009-23.951-10.742-23.943-23.973zm23.971-20.944c-11.575-.007-20.964 9.371-20.971 20.945-.007 11.575 9.37 20.964 20.945 20.972l200.934.125c11.575.007 20.964-9.37 20.971-20.945s-9.37-20.964-20.945-20.971z" fill="#f1faff" fill-rule="evenodd"/><rect fill="#f1faff" height="13.5558" rx="3" width="18.9968" x="267.645" y="359.785"/><path d="m272.392 356.405c0-2.624 2.127-4.751 4.751-4.751 2.624 0 4.751 2.127 4.751 4.751v5.682h-9.502z" stroke="#f1faff" stroke-linecap="round" stroke-linejoin="round" stroke-width="3"/><path clip-rule="evenodd" d="m713.035 127c0 10.475 8.491 18.966 18.965 18.966 10.475 0 18.966-8.491 18.966-18.966 0-10.474-8.491-18.966-18.966-18.966-10.474 0-18.965 8.492-18.965 18.966z" fill="#fff" fill-rule="evenodd"/><path clip-rule="evenodd" d="m732 111.483c8.57 0 15.517 6.947 15.517 15.517s-6.947 15.517-15.517 15.517-15.517-6.947-15.517-15.517 6.947-15.517 15.517-15.517" fill="#0572ec" fill-rule="evenodd"/><path clip-rule="evenodd" d="m732.076 115.621c6.209 0 11.303 5.094 11.303 11.455 0 6.209-5.094 11.303-11.303 11.303-6.36 0-11.455-5.094-11.455-11.303 0-6.361 5.095-11.455 11.455-11.455z" fill="#f7f7f7" fill-rule="evenodd"/><path d="m733.879 118.724c.486 0 .88.447.88.998v7.728c0 .176-.062.345-.172.47l-.55.624c-.229.26-.229.681 0 .941l.55.623c.11.125.172.294.172.471v3.699c0 .551-.394.998-.88.998h-3.758c-.486 0-.879-.447-.879-.998v-7.728c0-.176.061-.345.171-.47l.55-.624c.229-.26.229-.681 0-.941l-.55-.623c-.11-.125-.171-.294-.171-.471v-3.699c0-.551.393-.998.879-.998z" fill="#02346e"/><path d="m422.642 225.486c-4.76 7.873-13.402 13.138-23.268 13.138-9.743 0-18.285-5.13-23.08-12.833" stroke="#f1faff" stroke-linecap="round" stroke-miterlimit="10" stroke-width="5.8046"/><path d="m422.642 225.486c-4.76 7.873-13.401 13.138-23.268 13.138-9.743 0-18.285-5.13-23.08-12.833" stroke="#f1faff" stroke-linecap="round" stroke-miterlimit="10" stroke-width="5.8046"/><path d="m385.116 210.396c3.753 0 6.795-3.042 6.795-6.794 0-3.753-3.042-6.795-6.795-6.795-3.752 0-6.794 3.042-6.794 6.795 0 3.752 3.042 6.794 6.794 6.794z" fill="#f1faff"/><path d="m413.784 210.396c3.752 0 6.794-3.042 6.794-6.794 0-3.753-3.042-6.795-6.794-6.795-3.753 0-6.795 3.042-6.795 6.795 0 3.752 3.042 6.794 6.795 6.794z" fill="#f1faff"/><g mask="url(#g)"><path d="m422.642 225.486c-4.76 7.873-13.401 13.138-23.268 13.138-9.743 0-18.285-5.13-23.08-12.833" stroke="#f1faff" stroke-linecap="round" stroke-miterlimit="10" stroke-width="5.8046"/><path d="m422.642 225.486c-4.76 7.873-13.401 13.138-23.268 13.138-9.743 0-18.285-5.13-23.08-12.833" stroke="#0572ec" stroke-linecap="round" stroke-miterlimit="10" stroke-width="5.8046"/><path d="m413.784 210.396c3.752 0 6.794-3.042 6.794-6.794 0-3.753-3.042-6.795-6.794-6.795-3.753 0-6.795 3.042-6.795 6.795 0 3.752 3.042 6.794 6.795 6.794z" fill="#0572ec"/></g></g></svg>