<?xml version="1.0" encoding="UTF-8" standalone="no"?>
<svg xmlns:rdf="http://www.w3.org/1999/02/22-rdf-syntax-ns#" xmlns="http://www.w3.org/2000/svg" height="68" width="244" version="1.1" xmlns:cc="http://creativecommons.org/ns#" xmlns:dc="http://purl.org/dc/elements/1.1/" viewBox="0 0 243.99998 68.000008">
 <rect rx="15.95" ry="15.95" height="68" width="244" y="-5.9605e-7" x="-.0000076294" fill="#dbedf7"/>
 <circle cx="57.201" cy="35" r="25.551" fill="#fff"/>
 <g transform="matrix(1.5757 0 0 -1.5757 57.22 9.2439)">
  <path fill-rule="evenodd" fill="#1b1817" d="m0 0c-8.995 0-16.288-7.293-16.288-16.29 0-7.197 4.667-13.302 11.14-15.457.815-.149 1.112.354 1.112.786 0 .386-.014 1.411-.022 2.77-4.531-.984-5.487 2.184-5.487 2.184-.741 1.881-1.809 2.382-1.809 2.382-1.479 1.011.112.991.112.991 1.635-.116 2.495-1.679 2.495-1.679 1.453-2.489 3.813-1.77 4.741-1.354.148 1.053.568 1.771 1.034 2.178-3.617.411-7.42 1.809-7.42 8.051 0 1.778.635 3.232 1.677 4.371-.168.412-.727 2.068.159 4.311 0 0 1.368.438 4.48-1.67 1.299.361 2.693.542 4.078.548 1.383-.006 2.777-.187 4.078-.548 3.11 2.108 4.475 1.67 4.475 1.67.889-2.243.33-3.899.162-4.311 1.044-1.139 1.675-2.593 1.675-4.371 0-6.258-3.809-7.635-7.438-8.038.585-.503 1.106-1.497 1.106-3.017 0-2.177-.02-3.934-.02-4.468 0-.436.293-.943 1.12-.784 6.468 2.159 11.131 8.26 11.131 15.455 0 8.997-7.294 16.29-16.291 16.29"/>
 </g>
 <g fill="#0366d6" transform="matrix(1.1847 0 0 1.1847 29.043 4.3454)">
  <path d="m69.158 27.04q0 6.9828-4.9102 6.9828-3.0843 0-4.1453-2.3194h-.06169q.04935.0987.04935 2.0973v5.2186h-2.2207v-15.865q0-2.0603-.07402-2.7265h2.1467q.01234.04935.03701.35778.02467.29609.04935.92528.03701.62919.03701.8636h.04935q.59218-1.2337 1.5668-1.8012.97463-.57984 2.5661-.57984 2.4674 0 3.6888 1.6532t1.2214 5.1939zm-2.3317.04935q0-2.7882-.75256-3.9849t-2.3934-1.1967q-1.3201 0-2.0726.55517-.74022.55517-1.135 1.7395-.38245 1.172-.38245 3.0596 0 2.6278.83892 3.8738t2.7265 1.246q1.6532 0 2.4057-1.209.7649-1.2214.7649-4.0836z"/>
  <path d="m71.934 33.776v-18.308h2.2207v18.308h-2.2207z"/>
  <path d="m78.213 39.019q-.91294 0-1.5298-.13571v-1.6655q.46881.07402 1.0363.07402 2.0726 0 3.2817-3.0473l.20973-.53049-5.2926-13.287h2.3687l2.8129 7.3776q.06168.17272.14804.41946.08636.2344.55517 1.6038t.50582 1.5298l.8636-2.4304 2.9239-8.5002h2.344l-5.1322 13.349q-.82658 2.1343-1.5421 3.1706-.71555 1.0487-1.5915 1.5545-.8636.51816-1.9616.51816z"/>
  <path d="m102.97 33.776h-2.5784l-2.3317-9.4379-.44414-2.085q-.11103.55517-.34544 1.6038-.2344 1.0363-2.5168 9.919h-2.5661l-3.7381-13.349h2.196l2.2577 9.0678q.08636.29609.53049 2.4427l.20973-.91294 2.7882-10.598h2.3811l2.3317 9.1664.56751 2.344.38245-1.7149 2.5291-9.7956h2.1713l-3.8245 13.349z"/>
  <path d="m119.74 27.089q0 3.5037-1.5421 5.2186t-4.4784 1.7149q-2.9239 0-4.4167-1.7765-1.4928-1.7889-1.4928-5.1569 0-6.9088 5.9835-6.9088 3.0596 0 4.503 1.6902 1.4434 1.6778 1.4434 5.2186zm-2.3317 0q0-2.7635-.82659-4.0095-.81425-1.2584-2.7512-1.2584-1.9492 0-2.8252 1.2831-.86359 1.2707-.86359 3.9849 0 2.6401.85126 3.9725.86359 1.3201 2.7018 1.3201 1.9986 0 2.8499-1.2831.8636-1.2831.8636-4.0096z"/>
  <path d="m133.8 27.089q0 3.5037-1.5421 5.2186t-4.4784 1.7149q-2.9239 0-4.4167-1.7765-1.4928-1.7889-1.4928-5.1569 0-6.9088 5.9835-6.9088 3.0596 0 4.503 1.6902 1.4434 1.6778 1.4434 5.2186zm-2.3317 0q0-2.7635-.82659-4.0095-.81425-1.2584-2.7512-1.2584-1.9492 0-2.8252 1.2831-.86359 1.2707-.86359 3.9849 0 2.6401.85126 3.9725.86359 1.3201 2.7018 1.3201 1.9986 0 2.8499-1.2831.8636-1.2831.8636-4.0096z"/>
  <path d="m145.01 31.629q-.61685 1.2831-1.6408 1.8382-1.0116.55517-2.5168.55517-2.5291 0-3.7258-1.7025-1.1844-1.7025-1.1844-5.1569 0-6.9828 4.9102-6.9828 1.5175 0 2.5291.55517t1.6285 1.7642h.0247l-.0247-1.4928v-5.5393h2.2207v15.557q0 2.085.074 2.7512h-2.122q-.037-.19739-.0864-.91294-.037-.71555-.037-1.2337h-.0494zm-6.736-4.54q0 2.8005.74022 4.0096.74023 1.209 2.4057 1.209 1.8876 0 2.7388-1.3077.85125-1.3077.85125-4.0589 0-2.6525-.85125-3.8862-.85126-1.2337-2.7142-1.2337-1.6778 0-2.4304 1.246-.74022 1.2337-.74022 4.0219z"/>
 </g>
</svg>
